HIERARCHY
ROOT Hips
{
  OFFSET 50.3391 51.4684 1.80177
  CHANNELS 6 Xposition Yposition Zposition Zrotation Xrotation Yrotation
  JOINT spine
  {
    OFFSET 0 7.80059 0.448573
    CHANNELS 3 Zrotation Xrotation Yrotation
    JOINT spine1
    {
      OFFSET 0 10.1364 0
      CHANNELS 3 Zrotation Xrotation Yrotation
      JOINT spine2
      {
        OFFSET 0 9.71251 0
        CHANNELS 3 Zrotation Xrotation Yrotation
        JOINT Neck
        {
          OFFSET 0 24.9361 1.18887
          CHANNELS 3 Zrotation Xrotation Yrotation
          JOINT Head
          {
            OFFSET 0 7.53384 0
            CHANNELS 3 Zrotation Xrotation Yrotation
            End Site
            {
              OFFSET 0 18.2361 -6.01402
            }
          }
        }
        JOINT RightShoulder
        {
          OFFSET -4.08965 10.4888 -0.569457
          CHANNELS 3 Zrotation Xrotation Yrotation
          JOINT RightArm
          {
            OFFSET 0 13.757 0
            CHANNELS 3 Zrotation Xrotation Yrotation
            JOINT RightArmRoll
            {
              OFFSET 0 6.94478 0
              CHANNELS 3 Zrotation Xrotation Yrotation
              JOINT RightForeArm
              {
                OFFSET 0 20.2277 0
                CHANNELS 3 Zrotation Xrotation Yrotation
                JOINT RightForeArmRoll
                {
                  OFFSET 0 7.79312 0
                  CHANNELS 3 Zrotation Xrotation Yrotation
                  JOINT RightHand
                  {
                    OFFSET 0 15.6391 0
                    CHANNELS 3 Zrotation Xrotation Yrotation
                    End Site
                    {
                      OFFSET 0 0 0
                    }
                  }
                }
              }
            }
          }
        }
        JOINT LeftShoulder
        {
          OFFSET 4.08965 10.4888 -0.569457
          CHANNELS 3 Zrotation Xrotation Yrotation
          JOINT LeftArm
          {
            OFFSET 0 13.757 0
            CHANNELS 3 Zrotation Xrotation Yrotation
            JOINT LeftArmRoll
            {
              OFFSET 0 6.94478 0
              CHANNELS 3 Zrotation Xrotation Yrotation
              JOINT LeftForeArm
              {
                OFFSET 0 20.2277 0
                CHANNELS 3 Zrotation Xrotation Yrotation
                JOINT LeftForeArmRoll
                {
                  OFFSET 0 7.79313 0
                  CHANNELS 3 Zrotation Xrotation Yrotation
                  JOINT LeftHand
                  {
                    OFFSET 0 15.6391 0
                    CHANNELS 3 Zrotation Xrotation Yrotation
                    End Site
                    {
                      OFFSET 0 0 0
                    }
                  }
                }
              }
            }
          }
        }
      }
    }
  }
  JOINT RightUpLeg
  {
    OFFSET -6.91416 -1.26788 -1.06358
    CHANNELS 3 Zrotation Xrotation Yrotation
    JOINT RightUpLegRoll
    {
      OFFSET 0 18.3378 0
      CHANNELS 3 Zrotation Xrotation Yrotation
      JOINT RightLeg
      {
        OFFSET 0 -22.7085 0
        CHANNELS 3 Zrotation Xrotation Yrotation
        JOINT RightLegRoll
        {
          OFFSET 0 22.7828 0
          CHANNELS 3 Zrotation Xrotation Yrotation
          JOINT RightFoot
          {
            OFFSET 0 18.9629 0
            CHANNELS 3 Zrotation Xrotation Yrotation
            JOINT RightToeBase
            {
              OFFSET 0 15.852 0
              CHANNELS 3 Zrotation Xrotation Yrotation
              End Site
              {
                OFFSET 0.00671906 7.67701 -0.884892
              }
            }
          }
        }
      }
    }
  }
  JOINT LeftUpLeg
  {
    OFFSET 6.91416 -1.26788 -1.06358
    CHANNELS 3 Zrotation Xrotation Yrotation
    JOINT LeftUpLegRoll
    {
      OFFSET 0 18.3379 0
      CHANNELS 3 Zrotation Xrotation Yrotation
      JOINT LeftLeg
      {
        OFFSET 0 22.7084 0
        CHANNELS 3 Zrotation Xrotation Yrotation
        JOINT LeftLegRoll
        {
          OFFSET 0 22.9934 0
          CHANNELS 3 Zrotation Xrotation Yrotation
          JOINT LeftFoot
          {
            OFFSET 0 18.7522 0
            CHANNELS 3 Zrotation Xrotation Yrotation
            JOINT LeftToeBase
            {
              OFFSET 0 15.852 0
              CHANNELS 3 Zrotation Xrotation Yrotation
              End Site
              {
                OFFSET -0.030112 7.67701 -0.884893
              }
            }
          }
        }
      }
    }
  }
}
MOTION
Frames: 9
Frame Time: 0.00208333
48.5242 52.3303 6.01608 -0.245693 -16.5062 14.9744 1.35804 8.35784 -0.956308 2.95404 20.7073 -2.34548 3.00431 22.3506 -2.41028 -13.0466 -7.21923 -4.95794 14.4121 -0.131421 -4.73528 45.4644 -8.00901 -4.56392 128.09 48.7884 -55.2725 1.59028e-015 1.11319e-014 6.36111e-015 21.9745 53.8183 -12.0663 -2.44912e-005 3.21514e-006 -3 8.02896 -4.95149 0.697711 -48.9993 -8.74171 5.23043 -103.809 44.8048 41.6149 8.74653e-015 -5.56597e-015 1.27222e-014 -22.1493 57.8125 16.6814 5.55889e-006 8.89805e-007 3 -8.02928 -4.95144 -0.69766 -171.724 72.0271 -2.73294 180 7.0129e-015 178.113 -17.6242 71.1069 21.3661 1.60277e-006 -1.13988e-006 2.9474 -42.3857 81.5661 47.6383 8.13649 25.2327 -3.48773 177.324 75.5814 0.809589 4.54188e-006 -4.6773e-006 -2.05499 152.395 -75.0523 146.791 1.02381e-006 2.82354e-007 -2.83227 25.4178 74.7023 -27.4016 -8.13719 25.243 3.48937 
48.5375 52.3269 6.00696 -0.227418 -16.625 15.0006 1.3583 8.35807 -0.962564 2.95521 20.7078 -2.35823 3.00566 22.351 -2.42312 -12.9637 -7.14526 -4.93331 14.3744 -0.167253 -4.71076 45.5688 -7.98097 -4.5449 128.04 48.805 -55.1952 6.36111e-015 4.77083e-015 -6.36111e-015 21.9847 53.7275 -12.0456 -2.44912e-005 3.21514e-006 -3 8.02896 -4.95149 0.697711 -48.993 -8.74273 5.23106 -103.869 44.7713 41.5871 -1.82882e-014 2.54444e-014 2.54444e-014 -22.1282 57.7287 16.6367 5.55889e-006 8.89805e-007 3 -8.02928 -4.95144 -0.69766 -171.793 71.9142 -2.6415 180 7.01289e-015 178.11 -17.6386 71.1213 21.3789 1.60277e-006 -1.13988e-006 2.95108 -42.3537 81.5511 47.578 8.13649 25.2327 -3.48773 177.379 75.4715 0.75462 4.54188e-006 -4.6773e-006 -2.05814 152.336 -75.0747 146.731 1.02381e-006 2.82354e-007 -2.83258 25.4091 74.6731 -27.3602 -8.13719 25.243 3.48937 
48.5294 52.3313 5.98656 -0.210912 -16.7425 15.026 1.35871 8.35826 -0.968774 2.95706 20.7078 -2.37103 3.00768 22.351 -2.43601 -12.8834 -7.07269 -4.90839 14.3393 -0.201803 -4.68583 45.6719 -7.95302 -4.526 127.993 48.8212 -55.1171 1.11319e-014 1.90833e-014 -9.54166e-015 21.9951 53.6357 -12.0249 -2.44912e-005 3.21514e-006 -3 8.02896 -4.95149 0.697711 -48.9878 -8.74504 5.2327 -103.928 44.7425 41.5619 -8.82781e-032 7.95139e-016 6.36111e-015 -22.1129 57.644 16.5953 5.55889e-006 8.89805e-007 3 -8.02928 -4.95144 -0.69766 -171.856 71.8023 -2.5543 180 7.01288e-015 178.106 -17.652 71.1361 21.3906 1.60277e-006 -1.13988e-006 2.95468 -42.3227 81.5362 47.5188 8.13649 25.2327 -3.48773 177.438 75.3625 0.696492 4.54188e-006 -4.6773e-006 -2.06099 152.277 -75.0964 146.672 1.02381e-006 2.82354e-007 -2.83233 25.3989 74.6454 -27.3206 -8.13719 25.243 3.48937 
48.5218 52.3427 5.97241 -0.195778 -16.8592 15.0509 1.35925 8.35848 -0.974986 2.95945 20.7075 -2.38394 3.01026 22.3507 -2.44902 -12.8056 -7.00164 -4.88348 14.3066 -0.234926 -4.66082 45.7735 -7.9251 -4.50716 127.949 48.8369 -55.0376 1.59028e-015 1.11319e-014 -6.36111e-015 22.0061 53.5413 -12.0041 -2.44912e-005 3.21514e-006 -3 8.02896 -4.95149 0.697711 -48.9837 -8.74866 5.23534 -103.987 44.7187 41.5392 -3.97569e-015 9.54166e-015 1.59028e-014 -22.1025 57.5571 16.5563 5.55889e-006 8.89805e-007 3 -8.02928 -4.95144 -0.69766 -171.916 71.6911 -2.47029 180 7.01286e-015 178.103 -17.6644 71.1515 21.4014 1.60277e-006 -1.13988e-006 2.95833 -42.2934 81.5213 47.4606 8.13649 25.2327 -3.48773 177.499 75.2538 0.636295 4.54188e-006 -4.6773e-006 -2.06359 152.218 -75.1175 146.614 1.02381e-006 2.82354e-007 -2.83166 25.3873 74.6191 -27.2826 -8.13719 25.243 3.48937 
48.5209 52.3437 5.9554 -0.181939 -16.9751 15.0752 1.3599 8.35869 -0.981186 2.96234 20.707 -2.39691 3.01333 22.3501 -2.46211 -12.7299 -6.93188 -4.8586 14.2762 -0.266842 -4.63574 45.8739 -7.89723 -4.4884 127.909 48.8522 -54.9565 1.11319e-014 -3.18055e-015 -1.27222e-014 22.0176 53.4445 -11.9833 -2.44912e-005 3.21514e-006 -3 8.02896 -4.95149 0.697711 -48.9808 -8.75343 5.23888 -104.045 44.6992 41.5186 -2.91318e-030 8.74653e-015 1.90833e-014 -22.0965 57.4684 16.5195 5.55889e-006 8.89805e-007 3 -8.02928 -4.95144 -0.69766 -171.972 71.5806 -2.38927 180 7.01285e-015 178.099 -17.676 71.1673 21.4113 1.60277e-006 -1.13988e-006 2.96201 -42.2651 81.5065 47.403 8.13649 25.2327 -3.48773 177.564 75.1458 0.574126 4.54188e-006 -4.6773e-006 -2.06597 152.161 -75.1382 146.557 1.02381e-006 2.82354e-007 -2.8306 25.3748 74.5938 -27.2459 -8.13719 25.243 3.48937 
48.5212 52.348 5.94225 -0.169314 -17.0899 15.099 1.36065 8.35886 -0.98736 2.96566 20.706 -2.40992 3.01685 22.3492 -2.47524 -12.656 -6.86317 -4.83377 14.2477 -0.297767 -4.6106 45.9733 -7.8694 -4.46973 127.871 48.8669 -54.874 4.77083e-015 7.95139e-015 3.18055e-015 22.0295 53.3456 -11.9625 -2.44912e-005 3.21514e-006 -3 8.02896 -4.95149 0.697711 -48.9787 -8.75923 5.2432 -104.103 44.683 41.5 4.77083e-015 -1.59028e-015 9.54166e-015 -22.0944 57.3784 16.4847 5.55889e-006 8.89805e-007 3 -8.02928 -4.95144 -0.69766 -172.024 71.4709 -2.31104 180 7.01284e-015 178.096 -17.6868 71.1837 21.4204 1.60277e-006 -1.13988e-006 2.96569 -42.2377 81.4916 47.346 8.13649 25.2327 -3.48773 177.631 75.0384 0.510075 4.54188e-006 -4.6773e-006 -2.06816 152.104 -75.1584 146.5 1.02381e-006 2.82354e-007 -2.82923 25.3615 74.5696 -27.2104 -8.13719 25.243 3.48937 
48.5208 52.3374 5.9378 -0.157824 -17.2038 15.1223 1.36149 8.35895 -0.993493 2.96937 20.7047 -2.42292 3.02074 22.3479 -2.48837 -12.5836 -6.79527 -4.80903 14.221 -0.32792 -4.58541 46.0718 -7.84164 -4.45117 127.836 48.881 -54.79 -3.18055e-015 7.95139e-015 -0 22.0416 53.2451 -11.9416 -2.44912e-005 3.21514e-006 -3 8.02896 -4.95149 0.697711 -48.9774 -8.7659 5.24821 -104.161 44.6694 41.483 1.43125e-014 -3.97569e-015 1.90833e-014 -22.0955 57.2876 16.4516 5.55889e-006 8.89805e-007 3 -8.02928 -4.95144 -0.69766 -172.073 71.362 -2.23541 180 7.01282e-015 178.093 -17.6971 71.2005 21.4288 1.60277e-006 -1.13988e-006 2.96933 -42.2105 81.4766 47.2891 8.13649 25.2327 -3.48773 177.7 74.9319 0.444229 4.54188e-006 -4.6773e-006 -2.0702 152.047 -75.1783 146.444 1.02381e-006 2.82354e-007 -2.82758 25.3475 74.5461 -27.1759 -8.13719 25.243 3.48937 
48.5147 52.3476 5.91818 -0.147389 -17.3167 15.1451 1.36241 8.3589 -0.999574 2.97339 20.703 -2.43587 3.02495 22.3462 -2.50145 -12.5122 -6.72795 -4.78438 14.1957 -0.357517 -4.5602 46.1696 -7.81394 -4.43271 127.803 48.8945 -54.7046 6.36111e-015 6.36111e-015 -0 22.0539 53.1433 -11.9206 -2.44912e-005 3.21514e-006 -3 8.02896 -4.95149 0.697711 -48.9767 -8.7733 5.25377 -104.217 44.6577 41.4674 -4.77083e-015 1.27222e-014 1.27222e-014 -22.0993 57.1964 16.4202 5.55889e-006 8.89805e-007 3 -8.02928 -4.95144 -0.69766 -172.12 71.254 -2.16219 180 7.01281e-015 178.089 -17.7069 71.2178 21.4367 1.60277e-006 -1.13988e-006 2.97292 -42.1832 81.4617 47.2321 8.13649 25.2327 -3.48773 177.771 74.8262 0.376668 4.54188e-006 -4.6773e-006 -2.07211 151.991 -75.198 146.389 1.02381e-006 2.82354e-007 -2.8257 25.3333 74.5233 -27.1423 -8.13719 25.243 3.48937 
48.5129 52.3484 5.90564 -0.13793 -17.4285 15.1674 1.36341 8.3587 -1.00559 2.97767 20.7008 -2.44872 3.02942 22.344 -2.51444 -12.4417 -6.66097 -4.75985 14.1716 -0.386777 -4.53498 46.2669 -7.78633 -4.41438 127.77 48.9071 -54.6177 3.18055e-015 -2.06736e-014 -6.36111e-015 22.0662 53.0405 -11.8995 -2.44912e-005 3.21514e-006 -3 8.02896 -4.95149 0.697711 -48.9766 -8.78129 5.25979 -104.274 44.6469 41.453 2.16281e-030 -5.56597e-015 2.22639e-014 -22.1051 57.1052 16.3901 5.55889e-006 8.89805e-007 3 -8.02928 -4.95144 -0.69766 -172.164 71.1469 -2.0912 180 7.01279e-015 178.086 -17.7163 71.2355 21.4441 1.60277e-006 -1.13988e-006 2.97643 -42.1555 81.4467 47.1749 8.13649 25.2327 -3.48773 177.844 74.7215 0.30747 4.54188e-006 -4.6773e-006 -2.07392 151.935 -75.2175 146.333 1.02381e-006 2.82354e-007 -2.82366 25.319 74.5009 -27.1093 -8.13719 25.243 3.48937 
